<svg xmlns="http://www.w3.org/2000/svg" xmlns:xlink="http://www.w3.org/1999/xlink" width="541" zoomAndPan="magnify" viewBox="0 0 405.75 111.749996" height="149" preserveAspectRatio="xMidYMid meet" version="1.0"><defs><clipPath id="550b29770d"><path d="M 1 0 L 405 0 L 405 111.5 L 1 111.5 Z M 1 0 " clip-rule="nonzero"/></clipPath><clipPath id="1c63404239"><path d="M 1.078125 0 L 404.425781 0 L 404.425781 111.5 L 1.078125 111.5 Z M 1.078125 0 " clip-rule="nonzero"/></clipPath><clipPath id="3ae2bb6079"><path d="M 0.078125 0 L 403.425781 0 L 403.425781 111.21875 L 0.078125 111.21875 Z M 0.078125 0 " clip-rule="nonzero"/></clipPath><clipPath id="aa766d020f"><path d="M 24.433594 21.964844 L 62.941406 21.964844 L 62.941406 25.160156 L 24.433594 25.160156 Z M 41.921875 25.160156 L 45.464844 25.160156 L 45.464844 70.535156 L 41.921875 70.535156 Z M 41.921875 25.160156 " clip-rule="nonzero"/></clipPath><clipPath id="17ac65c66f"><path d="M 0.433594 0.964844 L 38.941406 0.964844 L 38.941406 4.160156 L 0.433594 4.160156 Z M 17.921875 4.160156 L 21.464844 4.160156 L 21.464844 49.535156 L 17.921875 49.535156 Z M 17.921875 4.160156 " clip-rule="nonzero"/></clipPath><clipPath id="c0730cf615"><rect x="0" width="39" y="0" height="50"/></clipPath><clipPath id="1cf46c7e94"><path d="M 73.042969 21.964844 L 104.472656 21.964844 L 104.472656 25.160156 L 73.042969 25.160156 Z M 73.042969 44.300781 L 104.472656 44.300781 L 104.472656 47.425781 L 73.042969 47.425781 Z M 73.042969 67.339844 L 104.472656 67.339844 L 104.472656 70.535156 L 73.042969 70.535156 Z M 73.042969 67.339844 " clip-rule="nonzero"/></clipPath><clipPath id="456c310666"><path d="M 0.0429688 0.964844 L 31.472656 0.964844 L 31.472656 4.160156 L 0.0429688 4.160156 Z M 0.0429688 23.300781 L 31.472656 23.300781 L 31.472656 26.425781 L 0.0429688 26.425781 Z M 0.0429688 46.339844 L 31.472656 46.339844 L 31.472656 49.535156 L 0.0429688 49.535156 Z M 0.0429688 46.339844 " clip-rule="nonzero"/></clipPath><clipPath id="d8e55dc49c"><rect x="0" width="32" y="0" height="50"/></clipPath><clipPath id="a324064bad"><path d="M 120.800781 21.964844 L 160.582031 21.964844 L 160.582031 70.765625 L 120.800781 70.765625 Z M 120.800781 21.964844 " clip-rule="nonzero"/></clipPath><clipPath id="0e6e51dab9"><path d="M 135.351562 46.589844 L 156.230469 70.527344 L 160.53125 70.527344 L 137.707031 44.035156 L 159.078125 21.96875 L 154.777344 21.96875 L 124.460938 53.191406 L 124.460938 21.96875 L 120.917969 21.96875 L 120.917969 70.539062 L 124.460938 70.539062 L 124.460938 57.769531 Z M 135.351562 46.589844 " clip-rule="nonzero"/></clipPath><clipPath id="adf2f525a3"><path d="M 0.800781 0.964844 L 40.582031 0.964844 L 40.582031 49.640625 L 0.800781 49.640625 Z M 0.800781 0.964844 " clip-rule="nonzero"/></clipPath><clipPath id="cf1e996dad"><path d="M 15.351562 25.589844 L 36.230469 49.527344 L 40.53125 49.527344 L 17.707031 23.035156 L 39.078125 0.96875 L 34.777344 0.96875 L 4.460938 32.191406 L 4.460938 0.96875 L 0.917969 0.96875 L 0.917969 49.539062 L 4.460938 49.539062 L 4.460938 36.769531 Z M 15.351562 25.589844 " clip-rule="nonzero"/></clipPath><clipPath id="227ea10c96"><rect x="0" width="41" y="0" height="50"/></clipPath><clipPath id="f56d08721b"><path d="M 164.511719 21.5 L 215.394531 21.5 L 215.394531 70.996094 L 164.511719 70.996094 Z M 164.511719 21.5 " clip-rule="nonzero"/></clipPath><clipPath id="b5b9147756"><path d="M 177.039062 67.679688 C 180.851562 69.832031 185.164062 70.875 189.941406 70.875 C 194.65625 70.875 198.957031 69.832031 202.839844 67.679688 C 206.660156 65.601562 209.636719 62.613281 211.855469 58.871094 L 213.996094 54.125 C 214.792969 51.675781 215.179688 49.058594 215.179688 46.242188 C 215.179688 41.59375 214.066406 37.367188 211.84375 33.613281 C 209.625 29.859375 206.640625 26.953125 202.828125 24.804688 C 198.957031 22.726562 194.65625 21.621094 189.941406 21.621094 C 185.152344 21.621094 180.851562 22.726562 177.039062 24.886719 C 173.148438 27.035156 170.171875 29.949219 167.953125 33.691406 C 165.734375 37.433594 164.691406 41.664062 164.691406 46.253906 C 164.691406 50.902344 165.734375 55.0625 167.953125 58.8125 C 170.171875 62.566406 173.160156 65.542969 177.039062 67.691406 M 200.976562 64.855469 C 197.652344 66.726562 193.96875 67.621094 189.949219 67.621094 C 185.859375 67.621094 182.175781 66.714844 178.851562 64.855469 C 175.519531 63.054688 172.949219 60.476562 171.078125 57.222656 C 169.136719 53.957031 168.234375 50.285156 168.234375 46.253906 C 168.234375 42.222656 169.136719 38.621094 171.078125 35.363281 C 172.949219 32.109375 175.519531 29.53125 178.851562 27.660156 C 182.175781 25.859375 185.859375 24.886719 189.949219 24.886719 C 193.96875 24.886719 197.652344 25.851562 200.976562 27.660156 C 204.242188 29.53125 206.808594 32.101562 208.75 35.363281 C 210.621094 38.628906 211.597656 42.230469 211.597656 46.253906 C 211.597656 50.273438 210.621094 53.957031 208.75 57.222656 C 206.808594 60.476562 204.242188 63.042969 200.976562 64.855469 " clip-rule="nonzero"/></clipPath><clipPath id="7c00d782b0"><path d="M 0.558594 0.550781 L 51.324219 0.550781 L 51.324219 49.882812 L 0.558594 49.882812 Z M 0.558594 0.550781 " clip-rule="nonzero"/></clipPath><clipPath id="02a27f078f"><path d="M 13.039062 46.679688 C 16.851562 48.832031 21.164062 49.875 25.941406 49.875 C 30.65625 49.875 34.957031 48.832031 38.839844 46.679688 C 42.660156 44.601562 45.636719 41.613281 47.855469 37.871094 L 49.996094 33.125 C 50.792969 30.675781 51.179688 28.058594 51.179688 25.242188 C 51.179688 20.59375 50.066406 16.367188 47.84375 12.613281 C 45.625 8.859375 42.640625 5.953125 38.828125 3.804688 C 34.957031 1.726562 30.65625 0.621094 25.941406 0.621094 C 21.152344 0.621094 16.851562 1.726562 13.039062 3.886719 C 9.148438 6.035156 6.171875 8.949219 3.953125 12.691406 C 1.734375 16.433594 0.691406 20.664062 0.691406 25.253906 C 0.691406 29.902344 1.734375 34.0625 3.953125 37.8125 C 6.171875 41.566406 9.160156 44.542969 13.039062 46.691406 M 36.976562 43.855469 C 33.652344 45.726562 29.96875 46.621094 25.949219 46.621094 C 21.859375 46.621094 18.175781 45.714844 14.851562 43.855469 C 11.519531 42.054688 8.949219 39.476562 7.078125 36.222656 C 5.136719 32.957031 4.234375 29.285156 4.234375 25.253906 C 4.234375 21.222656 5.136719 17.621094 7.078125 14.363281 C 8.949219 11.109375 11.519531 8.53125 14.851562 6.660156 C 18.175781 4.859375 21.859375 3.886719 25.949219 3.886719 C 29.96875 3.886719 33.652344 4.851562 36.976562 6.660156 C 40.242188 8.53125 42.808594 11.101562 44.75 14.363281 C 46.621094 17.628906 47.597656 21.230469 47.597656 25.253906 C 47.597656 29.273438 46.621094 32.957031 44.75 36.222656 C 42.808594 39.476562 40.242188 42.042969 36.976562 43.855469 " clip-rule="nonzero"/></clipPath><clipPath id="c35d80eedd"><rect x="0" width="52" y="0" height="50"/></clipPath><clipPath id="df063ae247"><path d="M 228.734375 21.835938 L 274 21.835938 L 274 70.609375 L 228.734375 70.609375 Z M 228.734375 21.835938 " clip-rule="nonzero"/></clipPath><clipPath id="aa67d861ed"><path d="M 270.625 33.757812 C 268.40625 30.085938 265.351562 27.230469 261.46875 25.082031 C 257.589844 23.011719 253.078125 21.964844 248.082031 21.964844 L 228.863281 21.964844 L 228.863281 25.160156 L 247.804688 25.160156 C 249.46875 25.160156 251.058594 25.289062 252.582031 25.539062 C 255.140625 25.957031 257.5 26.734375 259.667969 27.867188 C 263.070312 29.667969 265.710938 32.167969 267.582031 35.292969 C 269.382812 38.488281 270.355469 42.160156 270.355469 46.261719 C 270.355469 50.421875 269.382812 54.03125 267.582031 57.226562 C 265.710938 60.414062 263.070312 62.910156 259.667969 64.722656 C 256.203125 66.523438 252.242188 67.359375 247.804688 67.359375 L 232.398438 67.359375 L 232.398438 46.25 L 228.863281 46.25 L 228.863281 70.535156 L 248.082031 70.535156 C 253.078125 70.535156 257.589844 69.488281 261.46875 67.410156 C 265.351562 65.328125 268.40625 62.484375 270.625 58.808594 C 272.777344 55.136719 273.878906 50.96875 273.878906 46.25 C 273.878906 41.601562 272.777344 37.441406 270.625 33.757812 " clip-rule="nonzero"/></clipPath><clipPath id="c46945673b"><path d="M 0.734375 0.835938 L 45.992188 0.835938 L 45.992188 49.609375 L 0.734375 49.609375 Z M 0.734375 0.835938 " clip-rule="nonzero"/></clipPath><clipPath id="8abfee82f6"><path d="M 42.625 12.757812 C 40.40625 9.085938 37.351562 6.230469 33.46875 4.082031 C 29.589844 2.011719 25.078125 0.964844 20.082031 0.964844 L 0.863281 0.964844 L 0.863281 4.160156 L 19.804688 4.160156 C 21.46875 4.160156 23.058594 4.289062 24.582031 4.539062 C 27.140625 4.957031 29.5 5.734375 31.667969 6.867188 C 35.070312 8.667969 37.710938 11.167969 39.582031 14.292969 C 41.382812 17.488281 42.355469 21.160156 42.355469 25.261719 C 42.355469 29.421875 41.382812 33.03125 39.582031 36.226562 C 37.710938 39.414062 35.070312 41.910156 31.667969 43.722656 C 28.203125 45.523438 24.242188 46.359375 19.804688 46.359375 L 4.398438 46.359375 L 4.398438 25.25 L 0.863281 25.25 L 0.863281 49.535156 L 20.082031 49.535156 C 25.078125 49.535156 29.589844 48.488281 33.46875 46.410156 C 37.351562 44.328125 40.40625 41.484375 42.625 37.808594 C 44.777344 34.136719 45.878906 29.96875 45.878906 25.25 C 45.878906 20.601562 44.777344 16.441406 42.625 12.757812 " clip-rule="nonzero"/></clipPath><clipPath id="e662f72528"><rect x="0" width="46" y="0" height="50"/></clipPath><clipPath id="caa7512c48"><path d="M 278.722656 21.835938 L 327.191406 21.835938 L 327.191406 70.609375 L 278.722656 70.609375 Z M 278.722656 21.835938 " clip-rule="nonzero"/></clipPath><clipPath id="1315156717"><path d="M 304.664062 21.964844 L 301.128906 21.964844 L 278.785156 70.535156 L 282.609375 70.535156 L 302.863281 25.847656 L 323.183594 70.535156 L 327.007812 70.535156 Z M 304.664062 21.964844 " clip-rule="nonzero"/></clipPath><clipPath id="69f1a6d4dd"><path d="M 0.78125 0.835938 L 49.15625 0.835938 L 49.15625 49.609375 L 0.78125 49.609375 Z M 0.78125 0.835938 " clip-rule="nonzero"/></clipPath><clipPath id="204b6c1ee6"><path d="M 26.664062 0.964844 L 23.128906 0.964844 L 0.785156 49.535156 L 4.609375 49.535156 L 24.863281 4.847656 L 45.183594 49.535156 L 49.007812 49.535156 Z M 26.664062 0.964844 " clip-rule="nonzero"/></clipPath><clipPath id="7e1a88a6ad"><rect x="0" width="50" y="0" height="50"/></clipPath><clipPath id="5499571698"><path d="M 337.191406 21.835938 L 376.875 21.835938 L 376.875 70.609375 L 337.191406 70.609375 Z M 337.191406 21.835938 " clip-rule="nonzero"/></clipPath><clipPath id="405976353e"><path d="M 351.648438 46.597656 L 372.53125 70.535156 L 376.828125 70.535156 L 354.007812 44.03125 L 375.375 21.964844 L 371.078125 21.964844 L 340.75 53.1875 L 340.75 21.964844 L 337.21875 21.964844 L 337.21875 70.535156 L 340.75 70.535156 L 340.75 57.765625 Z M 351.648438 46.597656 " clip-rule="nonzero"/></clipPath><clipPath id="114385c191"><path d="M 0.210938 0.835938 L 39.875 0.835938 L 39.875 49.609375 L 0.210938 49.609375 Z M 0.210938 0.835938 " clip-rule="nonzero"/></clipPath><clipPath id="df103f11ae"><path d="M 14.648438 25.597656 L 35.53125 49.535156 L 39.828125 49.535156 L 17.007812 23.03125 L 38.375 0.964844 L 34.078125 0.964844 L 3.75 32.1875 L 3.75 0.964844 L 0.21875 0.964844 L 0.21875 49.535156 L 3.75 49.535156 L 3.75 36.765625 Z M 14.648438 25.597656 " clip-rule="nonzero"/></clipPath><clipPath id="0e27929e60"><rect x="0" width="40" y="0" height="50"/></clipPath><clipPath id="bb1c5df27d"><path d="M 304.472656 78.183594 L 379.90625 78.183594 L 379.90625 89.695312 L 304.472656 89.695312 Z M 304.472656 78.183594 " clip-rule="nonzero"/></clipPath><clipPath id="d28254376f"><path d="M 372.617188 86.476562 L 373.960938 86.300781 C 374.113281 87.066406 374.378906 87.613281 374.738281 87.949219 L 375.566406 88.457031 C 376.738281 88.457031 377.277344 88.238281 377.726562 87.800781 L 378.371094 86.828125 C 378.371094 85.5625 378.171875 85.054688 377.765625 84.636719 L 376.859375 84.039062 C 375.972656 84.039062 375.65625 84.089844 375.285156 84.1875 L 375.425781 83.015625 L 375.59375 83.035156 L 376.738281 82.886719 C 377.65625 82.289062 377.882812 81.832031 377.882812 81.214844 L 377.714844 80.308594 C 377.039062 79.652344 376.609375 79.5 376.09375 79.5 L 375.128906 79.671875 C 374.421875 80.328125 374.210938 80.835938 374.101562 81.492188 L 372.757812 81.242188 C 372.925781 80.335938 373.296875 79.640625 373.875 79.144531 C 374.449219 78.636719 375.1875 78.398438 376.0625 78.398438 L 377.207031 78.515625 C 378.203125 79.035156 378.601562 79.390625 378.859375 79.820312 L 379.257812 80.734375 C 379.257812 81.699219 379.136719 82.128906 378.878906 82.527344 L 378.253906 83.214844 L 378.910156 83.902344 C 379.617188 84.847656 379.792969 85.433594 379.792969 86.148438 C 379.792969 87.09375 379.445312 87.910156 378.757812 88.578125 C 378.054688 89.234375 377.167969 89.574219 376.113281 89.574219 C 375.148438 89.574219 374.351562 89.285156 373.714844 88.71875 C 373.085938 88.140625 372.71875 87.402344 372.628906 86.488281 M 369.8125 82.019531 L 369.613281 80.644531 C 368.808594 79.742188 368.300781 79.511719 367.722656 79.511719 L 366.609375 79.761719 C 365.722656 80.726562 365.503906 81.363281 365.503906 82.128906 L 365.710938 83.394531 C 366.539062 84.269531 367.054688 84.476562 367.683594 84.476562 L 368.816406 84.257812 C 369.613281 83.382812 369.8125 82.777344 369.8125 82.007812 M 364.320312 86.847656 L 365.601562 86.738281 C 365.710938 87.34375 365.921875 87.78125 366.230469 88.050781 L 366.9375 88.457031 C 367.84375 88.457031 368.191406 88.367188 368.507812 88.171875 L 369.074219 87.722656 C 369.472656 87.09375 369.644531 86.667969 369.761719 86.128906 L 369.980469 85.046875 L 369.960938 84.328125 L 369.335938 84.984375 C 368.398438 85.523438 367.902344 85.660156 367.363281 85.660156 C 366.449219 85.660156 365.683594 85.324219 365.054688 84.667969 C 364.4375 84.019531 364.121094 83.152344 364.121094 82.078125 C 364.121094 80.964844 364.4375 80.078125 365.09375 79.390625 C 365.75 78.714844 366.566406 78.386719 367.554688 78.386719 L 369.492188 78.964844 C 370.089844 79.351562 370.539062 79.878906 370.835938 80.605469 C 371.144531 81.3125 371.296875 82.335938 371.296875 83.679688 C 371.296875 85.085938 371.144531 86.191406 370.835938 87.027344 C 370.550781 87.851562 370.089844 88.480469 369.492188 88.90625 C 368.898438 89.355469 368.191406 89.5625 367.382812 89.5625 C 366.527344 89.5625 365.820312 89.316406 365.285156 88.847656 C 364.746094 88.378906 364.410156 87.703125 364.308594 86.847656 M 361.292969 82.007812 L 361.09375 80.636719 C 360.277344 79.730469 359.78125 79.5 359.191406 79.5 L 358.078125 79.75 C 357.191406 80.714844 356.972656 81.351562 356.972656 82.117188 L 357.183594 83.382812 C 358.007812 84.257812 358.527344 84.46875 359.152344 84.46875 L 360.289062 84.25 C 361.085938 83.371094 361.28125 82.765625 361.28125 82 M 355.789062 86.835938 L 357.074219 86.726562 C 357.183594 87.335938 357.390625 87.773438 357.699219 88.039062 L 358.40625 88.449219 C 359.3125 88.449219 359.660156 88.359375 359.980469 88.160156 L 360.546875 87.710938 C 360.945312 87.085938 361.113281 86.65625 361.234375 86.121094 L 361.441406 85.035156 L 361.421875 84.320312 L 360.796875 84.976562 C 359.859375 85.511719 359.363281 85.652344 358.824219 85.652344 C 357.910156 85.652344 357.144531 85.3125 356.515625 84.65625 C 355.910156 84.011719 355.582031 83.144531 355.582031 82.070312 C 355.582031 80.953125 355.898438 80.070312 356.554688 79.382812 C 357.210938 78.707031 358.027344 78.375 359.015625 78.375 L 360.953125 78.953125 C 361.550781 79.34375 362 79.871094 362.296875 80.597656 C 362.605469 81.304688 362.757812 82.328125 362.757812 83.671875 C 362.757812 85.074219 362.605469 86.179688 362.296875 87.015625 C 362.007812 87.839844 361.550781 88.46875 360.953125 88.898438 C 360.359375 89.34375 359.652344 89.554688 358.84375 89.554688 C 357.988281 89.554688 357.28125 89.304688 356.753906 88.835938 C 356.226562 88.367188 355.878906 87.691406 355.78125 86.835938 M 352.117188 89.375 L 350.773438 89.375 L 350.773438 80.816406 C 350.453125 81.125 350.027344 81.421875 349.507812 81.730469 L 348.503906 82.277344 L 348.097656 81.132812 C 348.84375 80.785156 349.5 80.355469 350.066406 79.851562 L 351.03125 78.855469 L 352.136719 78.375 Z M 335.683594 84.648438 L 340.105469 84.648438 C 340.042969 83.96875 339.875 83.480469 339.597656 83.152344 L 338.621094 82.378906 C 337.316406 82.378906 336.800781 82.578125 336.390625 82.984375 L 335.734375 83.960938 M 340.09375 86.804688 L 341.488281 86.984375 C 341.269531 87.800781 340.859375 88.429688 340.285156 88.867188 C 339.6875 89.316406 338.941406 89.542969 338.023438 89.542969 C 336.859375 89.542969 335.945312 89.195312 335.265625 88.480469 C 334.582031 87.761719 334.242188 86.765625 334.242188 85.484375 C 334.242188 84.148438 334.582031 83.113281 335.265625 82.378906 C 335.953125 81.640625 336.839844 81.273438 337.945312 81.273438 C 339 81.273438 339.855469 81.621094 340.53125 82.359375 C 341.207031 83.074219 341.539062 84.089844 341.539062 85.402344 L 341.539062 85.75 L 335.617188 85.75 C 335.664062 86.628906 335.902344 87.285156 336.351562 87.753906 L 337.347656 88.4375 C 338.511719 88.4375 338.917969 88.300781 339.277344 88.039062 L 339.90625 87.363281 M 332.222656 86.457031 L 333.535156 86.636719 C 333.394531 87.542969 333.027344 88.238281 332.429688 88.765625 C 331.832031 89.273438 331.097656 89.535156 330.242188 89.535156 C 329.15625 89.535156 328.28125 89.183594 327.625 88.46875 C 326.96875 87.761719 326.628906 86.757812 326.628906 85.421875 L 327.054688 83.195312 C 327.335938 82.546875 327.773438 82.058594 328.359375 81.742188 L 329.566406 81.261719 C 331.097656 81.261719 331.8125 81.480469 332.351562 81.917969 C 332.898438 82.347656 333.257812 82.976562 333.40625 83.769531 L 332.101562 83.96875 C 331.984375 83.433594 331.765625 83.035156 331.445312 82.765625 L 330.738281 82.367188 C 329.605469 82.367188 329.058594 82.617188 328.640625 83.085938 C 328.210938 83.570312 328.003906 84.339844 328.003906 85.394531 C 328.003906 86.46875 328.199219 87.222656 328.609375 87.722656 L 329.554688 88.4375 C 330.730469 88.4375 331.175781 88.269531 331.523438 87.949219 L 332.101562 87.144531 M 318.546875 89.382812 L 318.546875 81.441406 L 319.75 81.441406 L 319.75 82.578125 C 320.328125 81.699219 321.175781 81.273438 322.269531 81.273438 L 323.183594 81.363281 C 323.980469 81.699219 324.289062 81.929688 324.488281 82.199219 L 324.828125 82.816406 C 324.945312 83.441406 324.976562 83.878906 324.976562 84.496094 L 324.976562 89.375 L 323.632812 89.375 L 323.632812 84.566406 C 323.632812 84.019531 323.582031 83.601562 323.484375 83.332031 L 323.195312 82.84375 L 322.359375 82.449219 C 321.421875 82.449219 320.9375 82.636719 320.527344 82.996094 C 320.109375 83.34375 319.902344 84.039062 319.902344 85.054688 L 319.902344 89.382812 Z M 315.152344 81.441406 L 316.496094 81.441406 L 316.496094 89.382812 L 315.152344 89.382812 Z M 315.152344 78.425781 L 316.496094 78.425781 L 316.496094 79.960938 L 315.152344 79.960938 Z M 304.644531 85.859375 L 306.007812 85.742188 C 306.066406 86.289062 306.214844 86.738281 306.464844 87.105469 L 307.0625 87.730469 C 308.058594 88.179688 308.625 88.28125 309.230469 88.28125 L 310.265625 88.199219 C 311.121094 87.863281 311.429688 87.632812 311.640625 87.34375 L 311.949219 86.746094 L 311.859375 85.773438 C 311.460938 85.265625 311.121094 85.054688 310.664062 84.867188 C 310.375 84.757812 309.71875 84.578125 308.722656 84.328125 C 307.71875 84.078125 307.011719 83.871094 306.59375 83.652344 L 305.6875 83.023438 C 305.171875 82.21875 305.050781 81.75 305.050781 81.261719 L 305.199219 80.179688 C 305.828125 79.234375 306.285156 78.863281 306.902344 78.605469 L 308.902344 78.238281 C 309.710938 78.238281 310.4375 78.355469 311.042969 78.636719 L 312.148438 79.273438 C 312.824219 80.277344 312.992188 80.863281 313.023438 81.5 L 311.628906 81.613281 C 311.550781 80.925781 311.3125 80.40625 310.882812 80.046875 L 309.808594 79.511719 C 308.078125 79.511719 307.449219 79.660156 307.042969 79.988281 L 306.445312 80.707031 C 306.445312 81.542969 306.585938 81.871094 306.871094 82.128906 C 307.152344 82.367188 307.878906 82.644531 309.0625 82.90625 C 310.246094 83.164062 311.054688 83.414062 311.480469 83.613281 L 312.59375 84.269531 C 313.191406 85.175781 313.34375 85.691406 313.34375 86.269531 L 313.171875 87.402344 C 312.515625 88.429688 312.027344 88.828125 311.410156 89.117188 L 309.300781 89.542969 C 308.304688 89.542969 307.480469 89.402344 306.8125 89.117188 L 305.242188 87.800781 C 304.863281 87.234375 304.664062 86.578125 304.644531 85.839844 " clip-rule="nonzero"/></clipPath><clipPath id="779ea8e8f7"><path d="M 0.472656 0.183594 L 75.835938 0.183594 L 75.835938 11.695312 L 0.472656 11.695312 Z M 0.472656 0.183594 " clip-rule="nonzero"/></clipPath><clipPath id="89df9b4b32"><path d="M 68.617188 8.476562 L 69.960938 8.300781 C 70.113281 9.066406 70.378906 9.613281 70.738281 9.949219 L 71.566406 10.457031 C 72.738281 10.457031 73.277344 10.238281 73.726562 9.800781 L 74.371094 8.828125 C 74.371094 7.5625 74.171875 7.054688 73.765625 6.636719 L 72.859375 6.039062 C 71.972656 6.039062 71.65625 6.089844 71.285156 6.1875 L 71.425781 5.015625 L 71.59375 5.035156 L 72.738281 4.886719 C 73.65625 4.289062 73.882812 3.832031 73.882812 3.214844 L 73.714844 2.308594 C 73.039062 1.652344 72.609375 1.5 72.09375 1.5 L 71.128906 1.671875 C 70.421875 2.328125 70.210938 2.835938 70.101562 3.492188 L 68.757812 3.242188 C 68.925781 2.335938 69.296875 1.640625 69.875 1.144531 C 70.449219 0.636719 71.1875 0.398438 72.0625 0.398438 L 73.207031 0.515625 C 74.203125 1.035156 74.601562 1.390625 74.859375 1.820312 L 75.257812 2.734375 C 75.257812 3.699219 75.136719 4.128906 74.878906 4.527344 L 74.253906 5.214844 L 74.910156 5.902344 C 75.617188 6.847656 75.792969 7.433594 75.792969 8.148438 C 75.792969 9.09375 75.445312 9.910156 74.757812 10.578125 C 74.054688 11.234375 73.167969 11.574219 72.113281 11.574219 C 71.148438 11.574219 70.351562 11.285156 69.714844 10.71875 C 69.085938 10.140625 68.71875 9.402344 68.628906 8.488281 M 65.8125 4.019531 L 65.613281 2.644531 C 64.808594 1.742188 64.300781 1.511719 63.722656 1.511719 L 62.609375 1.761719 C 61.722656 2.726562 61.503906 3.363281 61.503906 4.128906 L 61.710938 5.394531 C 62.539062 6.269531 63.054688 6.476562 63.683594 6.476562 L 64.816406 6.257812 C 65.613281 5.382812 65.8125 4.777344 65.8125 4.007812 M 60.320312 8.847656 L 61.601562 8.738281 C 61.710938 9.34375 61.921875 9.78125 62.230469 10.050781 L 62.9375 10.457031 C 63.84375 10.457031 64.191406 10.367188 64.507812 10.171875 L 65.074219 9.722656 C 65.472656 9.09375 65.644531 8.667969 65.761719 8.128906 L 65.980469 7.046875 L 65.960938 6.328125 L 65.335938 6.984375 C 64.398438 7.523438 63.902344 7.660156 63.363281 7.660156 C 62.449219 7.660156 61.683594 7.324219 61.054688 6.667969 C 60.4375 6.019531 60.121094 5.152344 60.121094 4.078125 C 60.121094 2.964844 60.4375 2.078125 61.09375 1.390625 C 61.75 0.714844 62.566406 0.386719 63.554688 0.386719 L 65.492188 0.964844 C 66.089844 1.351562 66.539062 1.878906 66.835938 2.605469 C 67.144531 3.3125 67.296875 4.335938 67.296875 5.679688 C 67.296875 7.085938 67.144531 8.191406 66.835938 9.027344 C 66.550781 9.851562 66.089844 10.480469 65.492188 10.90625 C 64.898438 11.355469 64.191406 11.5625 63.382812 11.5625 C 62.527344 11.5625 61.820312 11.316406 61.285156 10.847656 C 60.746094 10.378906 60.410156 9.703125 60.308594 8.847656 M 57.292969 4.007812 L 57.09375 2.636719 C 56.277344 1.730469 55.78125 1.5 55.191406 1.5 L 54.078125 1.75 C 53.191406 2.714844 52.972656 3.351562 52.972656 4.117188 L 53.183594 5.382812 C 54.007812 6.257812 54.527344 6.46875 55.152344 6.46875 L 56.289062 6.25 C 57.085938 5.371094 57.28125 4.765625 57.28125 4 M 51.789062 8.835938 L 53.074219 8.726562 C 53.183594 9.335938 53.390625 9.773438 53.699219 10.039062 L 54.40625 10.449219 C 55.3125 10.449219 55.660156 10.359375 55.980469 10.160156 L 56.546875 9.710938 C 56.945312 9.085938 57.113281 8.65625 57.234375 8.121094 L 57.441406 7.035156 L 57.421875 6.320312 L 56.796875 6.976562 C 55.859375 7.511719 55.363281 7.652344 54.824219 7.652344 C 53.910156 7.652344 53.144531 7.3125 52.515625 6.65625 C 51.910156 6.011719 51.582031 5.144531 51.582031 4.070312 C 51.582031 2.953125 51.898438 2.070312 52.554688 1.382812 C 53.210938 0.707031 54.027344 0.375 55.015625 0.375 L 56.953125 0.953125 C 57.550781 1.34375 58 1.871094 58.296875 2.597656 C 58.605469 3.304688 58.757812 4.328125 58.757812 5.671875 C 58.757812 7.074219 58.605469 8.179688 58.296875 9.015625 C 58.007812 9.839844 57.550781 10.46875 56.953125 10.898438 C 56.359375 11.34375 55.652344 11.554688 54.84375 11.554688 C 53.988281 11.554688 53.28125 11.304688 52.753906 10.835938 C 52.226562 10.367188 51.878906 9.691406 51.78125 8.835938 M 48.117188 11.375 L 46.773438 11.375 L 46.773438 2.816406 C 46.453125 3.125 46.027344 3.421875 45.507812 3.730469 L 44.503906 4.277344 L 44.097656 3.132812 C 44.84375 2.785156 45.5 2.355469 46.066406 1.851562 L 47.03125 0.855469 L 48.136719 0.375 Z M 31.683594 6.648438 L 36.105469 6.648438 C 36.042969 5.96875 35.875 5.480469 35.597656 5.152344 L 34.621094 4.378906 C 33.316406 4.378906 32.800781 4.578125 32.390625 4.984375 L 31.734375 5.960938 M 36.09375 8.804688 L 37.488281 8.984375 C 37.269531 9.800781 36.859375 10.429688 36.285156 10.867188 C 35.6875 11.316406 34.941406 11.542969 34.023438 11.542969 C 32.859375 11.542969 31.945312 11.195312 31.265625 10.480469 C 30.582031 9.761719 30.242188 8.765625 30.242188 7.484375 C 30.242188 6.148438 30.582031 5.113281 31.265625 4.378906 C 31.953125 3.640625 32.839844 3.273438 33.945312 3.273438 C 35 3.273438 35.855469 3.621094 36.53125 4.359375 C 37.207031 5.074219 37.539062 6.089844 37.539062 7.402344 L 37.539062 7.75 L 31.617188 7.75 C 31.664062 8.628906 31.902344 9.285156 32.351562 9.753906 L 33.347656 10.4375 C 34.511719 10.4375 34.917969 10.300781 35.277344 10.039062 L 35.90625 9.363281 M 28.222656 8.457031 L 29.535156 8.636719 C 29.394531 9.542969 29.027344 10.238281 28.429688 10.765625 C 27.832031 11.273438 27.097656 11.535156 26.242188 11.535156 C 25.15625 11.535156 24.28125 11.183594 23.625 10.46875 C 22.96875 9.761719 22.628906 8.757812 22.628906 7.421875 L 23.054688 5.195312 C 23.335938 4.546875 23.773438 4.058594 24.359375 3.742188 L 25.566406 3.261719 C 27.097656 3.261719 27.8125 3.480469 28.351562 3.917969 C 28.898438 4.347656 29.257812 4.976562 29.40625 5.769531 L 28.101562 5.96875 C 27.984375 5.433594 27.765625 5.035156 27.445312 4.765625 L 26.738281 4.367188 C 25.605469 4.367188 25.058594 4.617188 24.640625 5.085938 C 24.210938 5.570312 24.003906 6.339844 24.003906 7.394531 C 24.003906 8.46875 24.199219 9.222656 24.609375 9.722656 L 25.554688 10.4375 C 26.730469 10.4375 27.175781 10.269531 27.523438 9.949219 L 28.101562 9.144531 M 14.546875 11.382812 L 14.546875 3.441406 L 15.75 3.441406 L 15.75 4.578125 C 16.328125 3.699219 17.175781 3.273438 18.269531 3.273438 L 19.183594 3.363281 C 19.980469 3.699219 20.289062 3.929688 20.488281 4.199219 L 20.828125 4.816406 C 20.945312 5.441406 20.976562 5.878906 20.976562 6.496094 L 20.976562 11.375 L 19.632812 11.375 L 19.632812 6.566406 C 19.632812 6.019531 19.582031 5.601562 19.484375 5.332031 L 19.195312 4.84375 L 18.359375 4.449219 C 17.421875 4.449219 16.9375 4.636719 16.527344 4.996094 C 16.109375 5.34375 15.902344 6.039062 15.902344 7.054688 L 15.902344 11.382812 Z M 11.152344 3.441406 L 12.496094 3.441406 L 12.496094 11.382812 L 11.152344 11.382812 Z M 11.152344 0.425781 L 12.496094 0.425781 L 12.496094 1.960938 L 11.152344 1.960938 Z M 0.644531 7.859375 L 2.007812 7.742188 C 2.066406 8.289062 2.214844 8.738281 2.464844 9.105469 L 3.0625 9.730469 C 4.058594 10.179688 4.625 10.28125 5.230469 10.28125 L 6.265625 10.199219 C 7.121094 9.863281 7.429688 9.632812 7.640625 9.34375 L 7.949219 8.746094 L 7.859375 7.773438 C 7.460938 7.265625 7.121094 7.054688 6.664062 6.867188 C 6.375 6.757812 5.71875 6.578125 4.722656 6.328125 C 3.71875 6.078125 3.011719 5.871094 2.59375 5.652344 L 1.6875 5.023438 C 1.171875 4.21875 1.050781 3.75 1.050781 3.261719 L 1.199219 2.179688 C 1.828125 1.234375 2.285156 0.863281 2.902344 0.605469 L 4.902344 0.238281 C 5.710938 0.238281 6.4375 0.355469 7.042969 0.636719 L 8.148438 1.273438 C 8.824219 2.277344 8.992188 2.863281 9.023438 3.5 L 7.628906 3.613281 C 7.550781 2.925781 7.3125 2.40625 6.882812 2.046875 L 5.808594 1.511719 C 4.078125 1.511719 3.449219 1.660156 3.042969 1.988281 L 2.445312 2.707031 C 2.445312 3.542969 2.585938 3.871094 2.871094 4.128906 C 3.152344 4.367188 3.878906 4.644531 5.0625 4.90625 C 6.246094 5.164062 7.054688 5.414062 7.480469 5.613281 L 8.59375 6.269531 C 9.191406 7.175781 9.34375 7.691406 9.34375 8.269531 L 9.171875 9.402344 C 8.515625 10.429688 8.027344 10.828125 7.410156 11.117188 L 5.300781 11.542969 C 4.304688 11.542969 3.480469 11.402344 2.8125 11.117188 L 1.242188 9.800781 C 0.863281 9.234375 0.664062 8.578125 0.644531 7.839844 " clip-rule="nonzero"/></clipPath><clipPath id="59c6d86254"><rect x="0" width="76" y="0" height="12"/></clipPath><clipPath id="6bc3d30371"><rect x="0" width="404" y="0" height="112"/></clipPath></defs><g clip-path="url(#550b29770d)"><path fill="#ffffff" d="M 1.078125 0 L 404.425781 0 L 404.425781 111.5 L 1.078125 111.5 Z M 1.078125 0 " fill-opacity="1" fill-rule="nonzero"/></g><g clip-path="url(#1c63404239)"><g transform="matrix(1, 0, 0, 1, 1, -0.000000000000002233)"><g clip-path="url(#6bc3d30371)"><g clip-path="url(#3ae2bb6079)"><path fill="#000000" d="M 0.078125 0 L 403.902344 0 L 403.902344 111.21875 L 0.078125 111.21875 Z M 0.078125 0 " fill-opacity="1" fill-rule="nonzero"/></g><g clip-path="url(#aa766d020f)"><g transform="matrix(1, 0, 0, 1, 24, 21)"><g clip-path="url(#c0730cf615)"><g clip-path="url(#17ac65c66f)"><path fill="#ffffff" d="M 0.433594 0.964844 L 38.9375 0.964844 L 38.9375 49.546875 L 0.433594 49.546875 Z M 0.433594 0.964844 " fill-opacity="1" fill-rule="nonzero"/></g></g></g></g><g clip-path="url(#1cf46c7e94)"><g transform="matrix(1, 0, 0, 1, 73, 21)"><g clip-path="url(#d8e55dc49c)"><g clip-path="url(#456c310666)"><path fill="#ffffff" d="M 0.0429688 0.964844 L 31.46875 0.964844 L 31.46875 49.582031 L 0.0429688 49.582031 Z M 0.0429688 0.964844 " fill-opacity="1" fill-rule="nonzero"/></g></g></g></g><g clip-path="url(#a324064bad)"><g clip-path="url(#0e6e51dab9)"><g transform="matrix(1, 0, 0, 1, 120, 21)"><g clip-path="url(#227ea10c96)"><g clip-path="url(#adf2f525a3)"><g clip-path="url(#cf1e996dad)"><rect x="-268.693" width="701.136" fill="#ffffff" y="-61.676998" height="193.103993" fill-opacity="1"/></g></g></g></g></g></g><g clip-path="url(#f56d08721b)"><g clip-path="url(#b5b9147756)"><g transform="matrix(1, 0, 0, 1, 164, 21)"><g clip-path="url(#c35d80eedd)"><g clip-path="url(#7c00d782b0)"><g clip-path="url(#02a27f078f)"><rect x="-312.693" width="701.136" fill="#ffffff" y="-61.676998" height="193.103993" fill-opacity="1"/></g></g></g></g></g></g><g clip-path="url(#df063ae247)"><g clip-path="url(#aa67d861ed)"><g transform="matrix(1, 0, 0, 1, 228, 21)"><g clip-path="url(#e662f72528)"><g clip-path="url(#c46945673b)"><g clip-path="url(#8abfee82f6)"><rect x="-376.693" width="701.136" fill="#ffffff" y="-61.676998" height="193.103993" fill-opacity="1"/></g></g></g></g></g></g><g clip-path="url(#caa7512c48)"><g clip-path="url(#1315156717)"><g transform="matrix(1, 0, 0, 1, 278, 21)"><g clip-path="url(#7e1a88a6ad)"><g clip-path="url(#69f1a6d4dd)"><g clip-path="url(#204b6c1ee6)"><rect x="-426.693" width="701.136" fill="#ffffff" y="-61.676998" height="193.103993" fill-opacity="1"/></g></g></g></g></g></g><g clip-path="url(#5499571698)"><g clip-path="url(#405976353e)"><g transform="matrix(1, 0, 0, 1, 337, 21)"><g clip-path="url(#0e27929e60)"><g clip-path="url(#114385c191)"><g clip-path="url(#df103f11ae)"><rect x="-485.693" width="701.136" fill="#ffffff" y="-61.676998" height="193.103993" fill-opacity="1"/></g></g></g></g></g></g><g clip-path="url(#bb1c5df27d)"><g clip-path="url(#d28254376f)"><g transform="matrix(1, 0, 0, 1, 304, 78)"><g clip-path="url(#59c6d86254)"><g clip-path="url(#779ea8e8f7)"><g clip-path="url(#89df9b4b32)"><rect x="-452.693" width="701.136" fill="#ffffff" y="-118.676998" height="193.103993" fill-opacity="1"/></g></g></g></g></g></g></g></g></g></svg>